<?xml version="1.0" encoding="utf-8"?>
<!-- Generator: Adobe Illustrator 22.0.0, SVG Export Plug-In . SVG Version: 6.00 Build 0)  -->
<svg version="1.1" id="Layer_1" xmlns="http://www.w3.org/2000/svg" xmlns:xlink="http://www.w3.org/1999/xlink" x="0px" y="0px"
	 viewBox="0 0 310.2 45" style="enable-background:new 0 0 310.2 45;" xml:space="preserve">
<style type="text/css">
	.st0{fill:#FFFFFF;}
	.st1{fill-rule:evenodd;clip-rule:evenodd;fill:#FFFFFF;}
</style>
<g>
	<g>
		<g>
			<g>
				<g>
					<path class="st0" d="M30.7,42.9v-24l-7.9,15.6h-5.4L9.5,18.9v24h-8V1.7h7.9L20.1,24L30.8,1.7h7.9v41.2H30.7z"/>
					<path class="st0" d="M62.9,43.3c-8.5,0-15.2-5.7-15.2-14.5V1.7h8v26.8c0,4.7,2.8,7.6,7.1,7.6c4.3,0,7.2-2.8,7.2-7.6V1.7h8v27.1
						C78.1,37.6,71.3,43.3,62.9,43.3z"/>
					<path class="st0" d="M111.4,42.9L95.1,17.6v25.3h-8V1.7h7.2L110.5,27V1.7h8v41.2H111.4z"/>
					<path class="st0" d="M154,39c-2.7,2.7-6.6,3.9-10.9,3.9h-14.9V1.7h14.9c4.3,0,8.2,1.2,10.9,3.9c4.6,4.6,4.2,10.3,4.2,16.5
						C158.1,28.4,158.6,34.4,154,39z M148.3,11.5c-1.4-1.7-3.2-2.5-6-2.5h-6.1v26.9h6.1c2.8,0,4.6-0.9,6-2.5
						c1.5-1.9,1.7-4.8,1.7-11.1C150.1,15.9,149.8,13.3,148.3,11.5z"/>
					<path class="st0" d="M181.5,26v16.9h-8V26L161.1,1.7h8.7l7.7,16.6l7.6-16.6h8.7L181.5,26z"/>
					<path class="st0" d="M198.9,42.9V1.7h8v34h18.7v7.2H198.9z"/>
					<path class="st0" d="M255.6,42.9l-2.4-7.3h-14.6l-2.5,7.3h-8.4l15-41.2h6.3L264,42.9H255.6z M246,13.9l-5.2,15H251L246,13.9z"
						/>
					<path class="st0" d="M291,42.9l-8-16.4h-5.8v16.4h-8V1.7h16.2c8.4,0,13.4,5.7,13.4,12.6c0,5.8-3.5,9.4-7.5,10.8l9.2,17.8H291z
						 M284.7,8.9h-7.6v10.9h7.6c3.5,0,5.8-2.3,5.8-5.4C290.6,11.2,288.3,8.9,284.7,8.9z"/>
				</g>
			</g>
		</g>
	</g>
	<g>
		<path class="st1" d="M305.7,4.7c0-0.4-0.3-0.6-0.7-0.6h-0.9v1.3h0.9C305.4,5.3,305.7,5.1,305.7,4.7z"/>
		<path class="st1" d="M304.9,1.7c-2.1,0-3.8,1.7-3.8,3.8c0,2.1,1.7,3.8,3.8,3.8s3.8-1.7,3.8-3.8C308.8,3.4,307.1,1.7,304.9,1.7z
			 M305.7,7.6l-0.9-1.7h-0.8v1.7h-0.6V3.5h1.6c0.8,0,1.3,0.5,1.3,1.2c0,0.6-0.4,1-0.8,1.1l0.9,1.8H305.7z"/>
	</g>
</g>
</svg>
